<svg width="320" height="300" viewBox="0 0 320 300" fill="none" xmlns="http://www.w3.org/2000/svg">
<!-- <g filter="url(#filter0_f)">
<path d="M0 165V194.481L321 333V262.529L0 165Z" fill="#A5A7AA"/>
</g> -->
<g opacity="0.2">
<path d="M251 268C301.258 268 342 227.258 342 177C342 126.742 301.258 86 251 86C200.742 86 160 126.742 160 177C160 227.258 200.742 268 251 268Z" fill="#F59393"/>
<path d="M302.195 101.76C312.139 116.346 317.955 133.971 317.955 152.955C317.955 203.213 277.213 243.955 226.955 243.955C207.971 243.955 190.346 238.139 175.76 228.195C192.141 252.222 219.727 268 251 268C301.258 268 342 227.258 342 177C342 145.727 326.222 118.141 302.195 101.76Z" fill="#EC6161"/>
<path d="M251 254.683C293.903 254.683 328.683 219.903 328.683 177C328.683 134.097 293.903 99.317 251 99.317C208.097 99.317 173.317 134.097 173.317 177C173.317 219.903 208.097 254.683 251 254.683Z" fill="#DAEAEF"/>
<path d="M301.81 118.237C313.598 131.858 320.73 149.619 320.73 169.047C320.73 211.95 285.95 246.73 243.047 246.73C223.619 246.73 205.858 239.598 192.237 227.81C206.481 244.269 227.524 254.683 251 254.683C293.903 254.683 328.683 219.903 328.683 177C328.683 153.524 318.269 132.481 301.81 118.237Z" fill="#A8D0D5"/>
<path d="M256.549 177H245.451V127.584C245.451 124.639 247.838 122.252 250.783 122.252H251.217C254.162 122.252 256.549 124.639 256.549 127.584V177Z" fill="#786E79"/>
<path d="M247.076 180.924L254.924 173.076L282.821 200.974C284.903 203.056 284.903 206.432 282.821 208.514L282.515 208.821C280.432 210.903 277.056 210.903 274.974 208.821L247.076 180.924Z" fill="#786E79"/>
<path d="M251 188.098C257.129 188.098 262.098 183.129 262.098 177C262.098 170.871 257.129 165.902 251 165.902C244.871 165.902 239.902 170.871 239.902 177C239.902 183.129 244.871 188.098 251 188.098Z" fill="#97E4F9"/>
<path d="M255.566 166.885C256.196 168.279 256.549 169.823 256.549 171.451C256.549 177.58 251.581 182.549 245.452 182.549C243.823 182.549 242.279 182.195 240.886 181.565C242.627 185.416 246.499 188.097 251 188.097C257.129 188.097 262.098 183.129 262.098 177C262.098 172.499 259.416 168.627 255.566 166.885Z" fill="#0ACEFA"/>
<path d="M251 115.381C252.517 115.381 253.746 114.151 253.746 112.634V99.3706C252.834 99.3389 251.92 99.3169 251 99.3169C250.08 99.3169 249.166 99.3386 248.254 99.3706V112.634C248.254 114.151 249.483 115.381 251 115.381Z" fill="#786E79"/>
<path d="M173.371 179.746H186.634C188.151 179.746 189.381 178.517 189.381 177C189.381 175.483 188.151 174.254 186.634 174.254H173.371C173.339 175.166 173.317 176.08 173.317 177C173.317 177.92 173.339 178.834 173.371 179.746Z" fill="#786E79"/>
<path d="M328.629 1105.25H315.366C313.849 1105.25 312.619 1106.48 312.619 1108C312.619 1109.52 313.849 1110.75 315.366 1110.75H328.629C328.661 1109.83 328.683 1108.92 328.683 1108C328.683 1107.08 328.661 1106.17 328.629 1105.25Z" fill="#786E79"/>
<path d="M216.439 122.631C216.948 123.512 217.871 124.005 218.82 124.005C219.286 124.005 219.758 123.885 220.19 123.636C221.504 122.877 221.954 121.198 221.196 119.884L214.556 108.385C212.936 109.247 211.351 110.165 209.802 111.135L216.439 122.631Z" fill="#786E79"/>
<path d="M281.809 123.636C282.242 123.886 282.714 124.005 283.18 124.005C284.129 124.005 285.053 123.512 285.561 122.631L292.198 111.135C290.649 110.164 289.064 109.247 287.444 108.385L280.804 119.884C280.046 121.198 280.496 122.877 281.809 123.636Z" fill="#786E79"/>
<path d="M304.364 1077.19C304.873 1078.07 305.796 1078.56 306.745 1078.56C307.211 1078.56 307.683 1078.45 308.116 1078.2L319.615 1071.56C318.753 1069.94 317.835 1068.35 316.864 1066.8L305.369 1073.44C304.056 1074.2 303.605 1075.88 304.364 1077.19Z" fill="#786E79"/>
<path d="M182.385 140.556L193.884 147.195C194.317 147.445 194.789 147.564 195.255 147.564C196.204 147.564 197.128 147.071 197.636 146.19C198.394 144.876 197.944 143.197 196.631 142.438L185.135 135.802C184.165 137.351 183.247 138.936 182.385 140.556Z" fill="#786E79"/>
<path d="M319.615 1144.44L308.116 1137.8C306.801 1137.05 305.122 1137.5 304.364 1138.81C303.605 1140.12 304.056 1141.8 305.369 1142.56L316.864 1149.2C317.835 1147.65 318.753 1146.06 319.615 1144.44Z" fill="#786E79"/>
<path d="M196.631 211.562C197.944 210.803 198.394 209.123 197.636 207.81C196.878 206.496 195.197 206.046 193.884 206.805L182.385 213.444C183.247 215.064 184.165 216.649 185.135 218.198L196.631 211.562Z" fill="#786E79"/>
<path d="M285.561 231.369C284.803 230.056 283.123 229.606 281.81 230.364C280.496 231.123 280.046 232.802 280.804 234.116L287.444 245.615C289.064 244.753 290.649 243.835 292.198 242.864L285.561 231.369Z" fill="#786E79"/>
<!-- <path d="M221.196 234.116C221.954 232.802 221.504 231.122 220.19 230.364C218.877 229.605 217.196 230.056 216.439 231.369L209.802 242.864C211.351 243.836 212.936 244.753 214.556 245.615L221.196 234.116Z" fill="#786E79"/> -->
<path d="M253.746 254.629V241.366C253.746 239.849 252.517 238.619 251 238.619C249.483 238.619 248.254 239.849 248.254 241.366V254.629C249.166 254.661 250.08 254.683 251 254.683C251.92 254.683 252.834 254.661 253.746 254.629Z" fill="#786E79"/>
</g>
<path d="M0 140V169.481L320 308V237.529L0 140Z" fill="#FAF9F9"/>
<path d="M242.914 150.293C242.613 152.434 243.615 154.913 243.615 154.913C244.217 156.604 245.419 156.829 247.625 156.378L262.76 152.885C262.96 152.885 263.161 152.772 263.261 152.66C263.261 152.66 263.261 152.66 263.361 152.66C265.166 151.871 266.268 149.73 265.867 147.476C265.667 146.575 265.266 145.786 264.765 145.11C264.664 144.997 264.564 144.884 264.464 144.772C263.562 143.983 262.359 143.645 261.156 143.87L260.555 143.983L246.021 147.364C244.016 147.589 243.114 148.828 242.914 150.293Z" fill="#D9A36E"/>
<path d="M293.432 247.202C294.735 247.991 294.735 249.343 293.432 250.245L286.115 254.978C284.811 255.766 282.707 255.766 281.504 254.978C280.201 254.189 280.201 252.837 281.504 251.935L288.821 247.202C290.124 246.414 292.229 246.414 293.432 247.202Z" fill="#432918"/>
<path d="M286.616 242.47L292.028 241.906C293.131 243.596 294.233 245.625 294.534 248.667L280.702 253.738C280.401 251.597 282.506 248.555 285.212 246.414C286.115 245.512 285.613 243.596 286.616 242.47Z" fill="#432918"/>
<path d="M277.795 237.061C279.098 237.849 279.098 239.202 277.795 240.103L270.478 244.836C269.175 245.625 267.07 245.625 265.867 244.836C264.564 244.047 264.564 242.695 265.867 241.793L273.184 237.061C274.387 236.159 276.492 236.159 277.795 237.061Z" fill="#432918"/>
<path d="M270.879 232.215L276.292 231.652C277.394 233.342 278.497 235.37 278.797 238.413L264.965 243.484C264.664 241.343 266.769 238.3 269.476 236.159C270.478 235.37 269.977 233.455 270.879 232.215Z" fill="#432918"/>
<path d="M267.671 204.382L278.998 206.072L279.299 203.368L281.203 187.704L283.007 172.605L271.781 170.914L267.671 204.382Z" fill="#413D5B"/>
<path d="M270.077 230.525C267.872 231.99 267.872 234.244 270.077 235.708C272.282 237.173 275.79 237.173 277.996 235.708C280.201 234.244 280.201 231.99 277.996 230.525C275.891 229.06 272.282 229.06 270.077 230.525Z" fill="#413D5B"/>
<path d="M279.699 233.117C280.201 223.764 279.499 207.199 278.998 206.072C278.497 204.833 277.695 200.776 276.793 199.987C275.389 198.861 273.786 197.734 272.082 198.072C270.077 198.41 268.172 202.128 267.671 204.382C267.17 206.636 268.072 231.765 268.373 233.117C268.674 234.469 270.478 232.666 271.58 233.117H279.699Z" fill="#413D5B"/>
<path d="M280.702 179.253H292.129V213.059H280.702V179.253Z" fill="#413D5B"/>
<path d="M260.254 144.434L265.967 138.349L271.18 133.39C272.984 131.7 275.59 131.813 277.194 133.841C278.797 135.757 278.597 138.799 276.793 140.49L265.667 151.307C262.359 154.012 260.354 152.547 259.252 151.195C257.648 149.279 258.45 146.237 260.254 144.434Z" fill="#D9A36E"/>
<path d="M270.378 143.42L271.18 176.098C271.28 181.169 287.718 185.564 291.928 179.591C292.028 179.479 292.129 179.253 292.229 179.141C292.429 173.619 292.63 169.675 293.231 160.66C293.331 159.533 293.331 158.407 293.432 157.28C293.933 149.054 294.434 141.729 294.434 141.729C293.432 140.039 291.928 138.799 290.024 137.673C289.021 137.109 288.019 136.546 286.916 135.982C285.714 135.419 284.611 134.855 283.408 134.179C281.203 132.94 279.399 132.151 277.895 131.7C271.881 129.897 271.28 134.067 270.478 140.039C270.277 141.279 270.277 142.405 270.378 143.42Z" fill="#413D5B"/>
<path d="M285.413 240.441C283.208 241.906 283.208 244.16 285.413 245.625C287.618 247.09 291.126 247.09 293.331 245.625C295.537 244.16 295.537 241.906 293.331 240.441C291.226 238.976 287.618 238.976 285.413 240.441Z" fill="#413D5B"/>
<path d="M295.035 243.033C294.735 233.68 292.63 214.073 292.129 213.059C291.527 211.932 290.425 210.467 289.422 209.791C287.919 208.777 286.215 207.875 284.611 208.326C282.606 208.889 281.003 210.692 280.702 213.059C280.401 215.312 283.308 241.793 283.809 243.033C284.21 244.272 284.21 244.272 285.413 244.611L295.035 243.033Z" fill="#413D5B"/>
<path d="M273.385 147.363C273.385 147.363 279.098 151.082 281.404 152.322C281.805 149.617 281.805 142.631 283.007 140.152C283.809 138.349 285.213 136.771 286.917 136.095C285.714 135.532 284.611 134.968 283.408 134.292C281.203 133.053 279.399 132.264 277.895 131.813C277.795 131.926 277.695 132.038 277.494 132.038C271.781 135.532 273.385 147.363 273.385 147.363Z" fill="#D9A36E"/>
<path d="M285.613 158.519C286.215 159.646 287.317 160.322 288.52 160.66C289.623 160.999 290.826 160.998 292.028 160.886C292.429 160.886 292.83 160.773 293.131 160.773C293.732 151.308 294.334 141.842 294.334 141.842C293.331 140.152 291.828 138.912 290.024 137.785C288.42 138.123 287.017 139.025 286.115 140.49C285.012 142.405 284.912 144.885 284.912 147.251C284.912 149.505 284.912 151.758 284.912 153.899C284.811 155.59 284.912 157.167 285.613 158.519Z" fill="#D9A36E"/>
<path opacity="0.1" d="M292.128 179.253C292.329 173.732 292.529 169.788 293.131 160.773C293.231 159.646 293.231 158.519 293.331 157.392L289.823 145.335L286.916 145.561C288.721 157.843 292.028 179.366 292.128 179.253Z" fill="#1D1D1B"/>
<path d="M289.823 140.152C292.028 139.363 294.434 140.828 295.136 143.307L297.241 150.97L299.847 161.224C300.548 163.703 298.744 166.069 296.439 166.858C294.234 167.647 293.131 165.281 292.229 163.027L286.916 146.124C286.215 143.532 287.518 140.828 289.823 140.152Z" fill="#D9A36E"/>
<path d="M276.492 136.884C276.492 137.109 276.592 137.222 276.692 137.447C276.893 137.898 277.294 138.236 277.795 138.574C277.895 138.574 277.995 138.687 278.096 138.687C279.8 139.475 282.406 139.25 283.909 138.011C285.513 136.771 285.413 134.968 283.709 134.067C283.508 133.954 283.308 133.841 283.007 133.729C282.807 133.616 282.606 133.616 282.406 133.616C282.205 133.616 281.904 133.503 281.604 133.503C280.2 133.39 278.697 133.729 277.594 134.517C277.093 134.968 276.692 135.419 276.592 135.87C276.492 136.208 276.492 136.546 276.492 136.884Z" fill="#FFCEA1"/>
<path d="M275.724 124.163L284.323 123.483L285.104 135.959L276.506 136.64L275.724 124.163Z" fill="#FFCEA1"/>
<path opacity="0.1" d="M277.394 137.222C277.394 137.222 276.893 136.996 276.592 136.884C276.592 137.109 276.692 137.222 276.793 137.447C276.993 137.898 277.394 138.236 277.895 138.574C277.995 138.574 278.096 138.687 278.196 138.687C279.8 138.574 281.403 137.56 282.205 135.982C282.506 135.419 282.706 134.855 282.907 134.292C282.907 134.179 283.007 133.954 283.007 133.841C283.107 133.278 283.208 132.602 283.208 132.038C283.308 130.686 283.107 129.221 283.007 127.869C282.907 127.193 282.807 126.291 282.706 125.39C282.706 125.728 282.807 126.066 282.807 126.404C282.907 127.756 283.107 129.221 283.007 130.573C282.907 131.587 282.807 132.714 282.406 133.616C282.305 133.841 282.205 134.067 282.105 134.179C282.105 134.292 282.005 134.405 282.005 134.405C281.002 136.208 279.198 137.222 277.394 137.222Z" fill="#1D1D1B"/>
<path d="M282.706 126.066C282.907 127.418 283.107 128.77 283.107 130.235C283.107 131.588 282.907 133.052 282.305 134.292C281.403 136.095 279.599 137.222 277.795 137.334C277.394 137.334 276.893 137.334 276.492 137.109C275.69 136.771 274.788 136.32 274.387 135.419C272.683 132.038 271.981 127.193 272.182 122.235C272.282 119.643 272.883 120.206 274.287 119.643C275.69 119.08 277.294 119.192 278.797 119.53C279.198 119.643 279.599 119.756 280 119.981C280.301 120.206 280.601 120.544 280.902 120.77C281.504 121.108 282.406 124.038 282.706 126.066Z" fill="#FFCEA1"/>
<path d="M285.212 130.799C284.912 131.7 284.11 132.602 283.909 132.489C283.709 132.376 283.609 132.038 283.508 131.7C282.907 129.446 282.706 127.193 282.807 124.826C282.506 125.052 281.303 126.517 281.203 126.404C280.902 126.066 281.002 124.488 280.902 122.235C280.902 122.235 280.702 123.7 277.594 120.77C274.587 117.84 282.807 113.783 285.012 118.967C285.814 120.657 286.415 126.967 285.212 130.799Z" fill="#432918"/>
<path d="M282.907 123.812C282.406 123.925 282.105 124.376 282.005 124.826C281.904 125.39 281.904 126.066 282.005 126.629C282.105 127.418 282.205 128.207 282.506 128.883C282.606 129.108 282.706 129.221 282.907 129.334C283.208 129.447 283.508 129.221 283.709 128.996C283.909 128.77 283.909 128.432 283.909 128.094C284.009 127.193 284.009 126.291 283.909 125.39C283.909 125.052 283.809 124.714 283.608 124.376C283.508 123.925 283.208 123.7 282.907 123.812Z" fill="#FFCEA1"/>
<path d="M280.902 122.235C280.902 121.446 281.303 120.995 281.905 120.544C282.306 120.206 283.007 119.981 283.107 119.305C283.208 118.854 283.107 118.178 282.907 117.727C281.804 115.474 272.884 114.572 272.382 122.122C272.282 123.249 281.002 124.827 280.902 122.235Z" fill="#FFCEA1"/>
<path d="M242.312 149.617C243.715 149.617 244.617 148.941 245.62 150.181C246.522 151.308 246.823 152.322 245.82 153.336C245.219 153.899 242.913 157.28 242.112 157.393C241.61 157.505 241.31 157.393 240.909 157.505C240.508 157.618 240.107 157.843 239.906 158.181C239.606 158.519 239.205 158.745 238.904 158.407C238.804 158.294 238.503 157.393 240.007 156.04C240.307 155.702 237.401 157.505 235.095 159.534C234.694 159.872 233.692 159.646 234.093 158.407C234.795 157.28 235.797 156.491 236.799 155.702C236.499 155.139 235.997 153.899 235.997 153.223C236.098 152.434 238.002 149.955 238.603 149.617C239.205 149.505 241.711 149.617 242.312 149.617Z" fill="#FFCEA1"/>
<path d="M276.993 178.014C276.492 178.352 276.091 178.69 275.49 178.803C275.089 178.915 274.688 178.915 274.287 178.803C273.285 178.69 272.282 178.69 271.28 178.577C270.979 178.577 270.678 178.577 270.378 178.464C269.676 178.352 269.075 177.901 268.574 177.338C268.473 177.112 268.273 177 268.373 176.662C268.373 176.549 268.473 176.436 268.473 176.323C268.774 175.873 269.375 175.873 269.877 175.76C270.779 175.535 271.681 174.971 272.483 174.408C273.285 173.844 273.986 173.056 274.788 172.492C274.187 172.943 273.585 173.394 272.984 173.619C272.282 173.732 271.48 173.619 271.079 172.943C271.079 172.83 270.979 172.83 270.979 172.718C270.979 172.605 270.979 172.605 270.979 172.492C271.18 172.041 271.48 171.816 271.881 171.703C272.182 171.591 272.483 171.591 272.783 171.591C273.184 171.478 273.485 171.253 273.786 171.027C275.089 170.126 276.693 169.675 278.196 170.013C278.497 170.126 278.797 170.126 278.998 170.238C279.599 170.577 280.1 171.253 280.501 171.929C280.602 172.041 280.702 172.267 280.702 172.38C280.702 172.492 280.702 172.605 280.702 172.83C280.602 173.957 280 174.971 279.399 175.873C278.697 176.662 277.895 177.338 276.993 178.014Z" fill="#FFCEA1"/>
<path d="M254.44 172.38L264.765 179.141C264.965 179.253 265.366 179.253 265.566 179.141L280.301 169.562C280.802 169.224 280.802 168.323 280.301 167.985L269.977 161.224C269.776 161.111 269.375 161.111 269.175 161.224L254.44 170.802C253.939 171.14 253.939 171.929 254.44 172.38Z" fill="#878787"/>
<path d="M256.445 170.689L265.967 176.887L278.998 168.548L269.375 162.238L256.445 170.689Z" fill="#EDEDED"/>
<path d="M271.079 172.605C271.28 172.154 271.58 171.929 271.981 171.816C272.282 171.704 272.583 171.703 272.883 171.703C273.284 171.591 273.585 171.365 273.886 171.14C275.189 170.239 276.793 169.788 278.296 170.126C278.597 170.239 278.898 170.239 279.098 170.351C279.699 170.689 280.201 171.365 280.602 172.042C280.702 172.154 280.802 172.38 280.802 172.492C280.802 172.605 280.802 172.718 280.802 172.943C280.702 174.07 280.1 175.084 279.499 175.986C278.797 176.774 277.995 177.45 277.093 178.127C276.793 178.352 276.492 178.577 276.191 178.69L274.788 174.295C274.788 174.295 274.387 173.506 274.086 173.394C273.786 173.619 273.385 173.732 273.084 173.845C270.678 174.295 271.079 172.718 271.079 172.605Z" fill="#FFCEA1"/>
<path d="M278.096 170.351C278.296 172.492 280 174.521 280 174.521C281.003 175.873 282.306 175.76 284.21 174.633L297.842 166.407C298.042 166.295 298.143 166.182 298.343 166.069C299.947 164.717 300.448 162.351 299.446 160.322C299.045 159.533 298.443 158.857 297.742 158.407C297.641 158.294 297.441 158.294 297.341 158.181C296.238 157.73 295.035 157.73 294.033 158.407L293.532 158.745L280.401 166.633C278.396 167.534 277.895 168.999 278.096 170.351Z" fill="#D9A36E"/>
<path d="M257.548 173.056L262.86 176.436C263.261 176.662 263.161 177.112 262.66 177.225L261.858 177.45C261.457 177.563 261.056 177.45 260.755 177.338L260.054 176.887L258.55 177L256.746 175.873L256.946 174.971L256.245 174.521C255.944 174.295 255.844 174.07 256.044 173.844L256.445 173.281C256.545 172.83 257.247 172.718 257.548 173.056Z" fill="#DADADA"/>
<path d="M257.347 174.521C257.247 174.521 257.247 174.633 257.347 174.633L260.354 176.549C260.455 176.549 260.555 176.549 260.555 176.549C260.655 176.549 260.655 176.436 260.555 176.436L257.548 174.521C257.548 174.521 257.448 174.521 257.347 174.521Z" fill="#575756"/>
<path d="M257.848 174.182C257.748 174.182 257.748 174.295 257.848 174.295L260.855 176.211C260.956 176.211 261.056 176.211 261.056 176.211C261.156 176.211 261.156 176.098 261.056 176.098L258.049 174.182C257.949 174.182 257.848 174.182 257.848 174.182Z" fill="#575756"/>
<path d="M258.25 173.957C258.149 173.957 258.149 174.07 258.25 174.07L261.257 175.986C261.357 175.986 261.457 175.986 261.457 175.986C261.557 175.986 261.557 175.873 261.457 175.873L258.45 173.957C258.45 173.957 258.35 173.957 258.25 173.957Z" fill="#575756"/>
<path d="M262.159 176.549C262.058 176.662 262.058 176.774 262.159 176.887C262.259 177 262.459 177 262.66 176.887C262.76 176.774 262.76 176.662 262.66 176.549C262.459 176.549 262.259 176.549 262.159 176.549Z" fill="#878787"/>
<path d="M256.846 173.168C256.746 173.281 256.746 173.394 256.846 173.506C256.946 173.619 257.147 173.619 257.347 173.506C257.448 173.394 257.448 173.281 257.347 173.168C257.147 173.056 256.946 173.056 256.846 173.168Z" fill="#878787"/>
<path d="M314.608 275.371C315.366 275.035 315.707 274.149 315.371 273.392L309.896 261.052C309.56 260.294 308.674 259.953 307.917 260.289C307.159 260.625 306.818 261.511 307.154 262.268L312.021 273.237L301.052 278.104C300.294 278.44 299.953 279.326 300.289 280.083C300.625 280.841 301.511 281.182 302.268 280.846L314.608 275.371ZM-0.539365 154.4L9.27314 158.181L10.3519 155.382L0.539365 151.6L-0.539365 154.4ZM28.8981 165.743L48.5231 173.306L49.6019 170.507L29.9769 162.944L28.8981 165.743ZM68.1481 180.868L87.7731 188.431L88.8519 185.632L69.2269 178.069L68.1481 180.868ZM107.398 195.993L127.023 203.556L128.102 200.757L108.477 193.194L107.398 195.993ZM146.648 211.118L166.273 218.681L167.352 215.882L147.727 208.319L146.648 211.118ZM185.898 226.243L205.523 233.806L206.602 231.007L186.977 223.444L185.898 226.243ZM225.148 241.368L244.773 248.931L245.852 246.132L226.227 238.569L225.148 241.368ZM264.398 256.493L284.023 264.056L285.102 261.257L265.477 253.694L264.398 256.493ZM303.648 271.618L313.461 275.4L314.539 272.6L304.727 268.819L303.648 271.618Z" fill="#D9A36E" fill-opacity="0.6"/>
<defs>
<filter id="filter0_f" x="-10" y="155" width="341" height="188" filterUnits="userSpaceOnUse" color-interpolation-filters="sRGB">
<feFlood flood-opacity="0" result="BackgroundImageFix"/>
<feBlend mode="normal" in="SourceGraphic" in2="BackgroundImageFix" result="shape"/>
<feGaussianBlur stdDeviation="5" result="effect1_foregroundBlur"/>
</filter>
</defs>
</svg>
